<svg role="img" aria-labelledby="title" viewBox="0 0 24 24" xmlns="http://www.w3.org/2000/svg"><title>Twitter</title><path d="m9.05 18.45a9.21 9.21 0 0 0 9.28-9.27c0-.14 0-.28 0-.42a6.35 6.35 0 0 0 1.62-1.69 6 6 0 0 1 -1.87.51 3.21 3.21 0 0 0 1.43-1.8 6.43 6.43 0 0 1 -2.07.79 3.26 3.26 0 0 0 -5.55 3 9.29 9.29 0 0 1 -6.73-3.43 3.27 3.27 0 0 0 1 4.35 3.11 3.11 0 0 1 -1.48-.41 3.27 3.27 0 0 0 2.62 3.2 3.32 3.32 0 0 1 -1.47.06 3.27 3.27 0 0 0 3 2.26 6.46 6.46 0 0 1 -4.77 1.4 9.2 9.2 0 0 0 5 1.46"/></svg>
