<svg role="img" aria-labelledby="title" viewBox="0 0 24 24" xmlns="http://www.w3.org/2000/svg"><title>GitHub</title><path d="m18.65 12.14a7.6 7.6 0 0 0 .42-2.88 4.21 4.21 0 0 0 -1.26-3.07 4 4 0 0 0 -.18-2.66s-.88-.28-2.87 1.05a9.88 9.88 0 0 0 -2.44-.29 10.23 10.23 0 0 0 -2.71.35c-2-1.4-3-1.11-3-1.11a3.89 3.89 0 0 0 -.12 2.85 4.15 4.15 0 0 0 -1.08 2.88c0 3.13 1.32 5 5.11 5.36a2 2 0 0 0 -.84 1.29 2.06 2.06 0 0 1 -2.86-.76 2 2 0 0 0 -1.46-1s-.93 0-.06.58a2.56 2.56 0 0 1 1 1.4s.61 1.87 3.31 1.28v1.94a1.13 1.13 0 0 1 -.69.92s-.37.26 0 .4c0 0 1.75.14 1.75-1.29v-2.11s-.07-.84.34-1.13v3.47s0 .83-.46 1.14c0 0-.28.52.35.38a1.56 1.56 0 0 0 1.25-1.58v-3.51h.29v3.51a1.56 1.56 0 0 0 1.25 1.58c.63.14.35-.38.35-.38-.43-.31-.46-1.14-.46-1.14v-3.44c.41.32.34 1.1.34 1.1v2.11c0 1.43 1.75 1.29 1.75 1.29.4-.14 0-.4 0-.4a1.13 1.13 0 0 1 -.69-.92v-2.77a2.22 2.22 0 0 0 -.9-2c2.73-.22 4-1.06 4.57-2.44z"/></svg>
